<mxfile host="app.diagrams.net" agent="Mozilla/5.0 (Windows NT 10.0; Win64; x64) AppleWebKit/537.36 (KHTML, like Gecko) Chrome/128.0.0.0 Safari/537.36" version="24.7.8">
  <diagram name="Page-1" id="ff44883e-f642-bcb2-894b-16b3d25a3f0b">
    <mxGraphModel dx="4097" dy="3468" grid="1" gridSize="10" guides="1" tooltips="1" connect="1" arrows="1" fold="1" page="1" pageScale="1.5" pageWidth="1169" pageHeight="826" background="none" math="0" shadow="0">
      <root>
        <mxCell id="0" style=";html=1;" />
        <mxCell id="1" style=";html=1;" parent="0" />
        <mxCell id="iIViWj5kwo_5ftV5tEHs-10" style="edgeStyle=none;curved=1;rounded=0;orthogonalLoop=1;jettySize=auto;html=1;exitX=1;exitY=0.5;exitDx=0;exitDy=0;fontSize=12;startSize=8;endSize=8;entryX=0;entryY=0.5;entryDx=0;entryDy=0;" parent="1" source="f0bcc99304e6f5a-2" target="iIViWj5kwo_5ftV5tEHs-11" edge="1">
          <mxGeometry relative="1" as="geometry">
            <mxPoint x="520" y="350.4117647058823" as="targetPoint" />
          </mxGeometry>
        </mxCell>
        <mxCell id="iIViWj5kwo_5ftV5tEHs-38" value="&lt;font style=&quot;font-size: 20px;&quot;&gt;z&lt;/font&gt;" style="edgeLabel;html=1;align=center;verticalAlign=middle;resizable=0;points=[];fontSize=12;" parent="iIViWj5kwo_5ftV5tEHs-10" vertex="1" connectable="0">
          <mxGeometry x="-0.4769" y="3" relative="1" as="geometry">
            <mxPoint x="19" y="-17" as="offset" />
          </mxGeometry>
        </mxCell>
        <mxCell id="f0bcc99304e6f5a-2" value="q1" style="ellipse;whiteSpace=wrap;html=1;rounded=0;shadow=1;strokeColor=#666666;strokeWidth=1;fontSize=30;align=center;fillColor=#f5f5f5;" parent="1" vertex="1">
          <mxGeometry x="280" y="310" width="80" height="80" as="geometry" />
        </mxCell>
        <mxCell id="iIViWj5kwo_5ftV5tEHs-1" value="" style="edgeStyle=none;orthogonalLoop=1;jettySize=auto;html=1;rounded=0;fontSize=12;startSize=8;endSize=8;curved=1;entryX=0;entryY=0.5;entryDx=0;entryDy=0;" parent="1" target="iIViWj5kwo_5ftV5tEHs-2" edge="1">
          <mxGeometry width="140" relative="1" as="geometry">
            <mxPoint y="580" as="sourcePoint" />
            <mxPoint x="40" y="580" as="targetPoint" />
            <Array as="points" />
          </mxGeometry>
        </mxCell>
        <mxCell id="iIViWj5kwo_5ftV5tEHs-6" style="edgeStyle=none;curved=0;rounded=0;orthogonalLoop=1;jettySize=auto;html=1;entryX=0;entryY=0.5;entryDx=0;entryDy=0;fontSize=12;startSize=8;endSize=8;" parent="1" source="iIViWj5kwo_5ftV5tEHs-2" target="f0bcc99304e6f5a-2" edge="1">
          <mxGeometry relative="1" as="geometry">
            <Array as="points">
              <mxPoint x="200" y="580" />
              <mxPoint x="200" y="350" />
            </Array>
          </mxGeometry>
        </mxCell>
        <mxCell id="iIViWj5kwo_5ftV5tEHs-8" value="&lt;font style=&quot;font-size: 20px;&quot;&gt;w&lt;/font&gt;" style="edgeLabel;html=1;align=center;verticalAlign=middle;resizable=0;points=[];fontSize=12;" parent="iIViWj5kwo_5ftV5tEHs-6" vertex="1" connectable="0">
          <mxGeometry x="0.7841" y="2" relative="1" as="geometry">
            <mxPoint x="-7" y="-17" as="offset" />
          </mxGeometry>
        </mxCell>
        <mxCell id="iIViWj5kwo_5ftV5tEHs-7" style="edgeStyle=none;curved=0;rounded=0;orthogonalLoop=1;jettySize=auto;html=1;exitX=1;exitY=0.5;exitDx=0;exitDy=0;entryX=0;entryY=0.5;entryDx=0;entryDy=0;fontSize=12;startSize=8;endSize=8;" parent="1" source="iIViWj5kwo_5ftV5tEHs-2" target="iIViWj5kwo_5ftV5tEHs-3" edge="1">
          <mxGeometry relative="1" as="geometry">
            <Array as="points">
              <mxPoint x="200" y="580" />
              <mxPoint x="200" y="740" />
            </Array>
          </mxGeometry>
        </mxCell>
        <mxCell id="iIViWj5kwo_5ftV5tEHs-9" value="&lt;span style=&quot;font-size: 20px;&quot;&gt;y&lt;/span&gt;" style="edgeLabel;html=1;align=center;verticalAlign=middle;resizable=0;points=[];fontSize=12;" parent="iIViWj5kwo_5ftV5tEHs-7" vertex="1" connectable="0">
          <mxGeometry x="0.7841" relative="1" as="geometry">
            <mxPoint x="-7" y="-179" as="offset" />
          </mxGeometry>
        </mxCell>
        <mxCell id="JUdrio8stWn7Q4SskedR-26" value="&lt;font style=&quot;font-size: 20px;&quot;&gt;z&lt;/font&gt;" style="edgeLabel;html=1;align=center;verticalAlign=middle;resizable=0;points=[];" parent="iIViWj5kwo_5ftV5tEHs-7" vertex="1" connectable="0">
          <mxGeometry x="0.7257" y="1" relative="1" as="geometry">
            <mxPoint y="-19" as="offset" />
          </mxGeometry>
        </mxCell>
        <mxCell id="JUdrio8stWn7Q4SskedR-3" value="" style="edgeStyle=orthogonalEdgeStyle;rounded=0;orthogonalLoop=1;jettySize=auto;html=1;" parent="1" source="iIViWj5kwo_5ftV5tEHs-2" target="JUdrio8stWn7Q4SskedR-2" edge="1">
          <mxGeometry relative="1" as="geometry" />
        </mxCell>
        <mxCell id="iIViWj5kwo_5ftV5tEHs-2" value="q0" style="ellipse;whiteSpace=wrap;html=1;rounded=0;shadow=1;strokeColor=#666666;strokeWidth=1;fontSize=30;align=center;fillColor=#f5f5f5;" parent="1" vertex="1">
          <mxGeometry x="60" y="540" width="80" height="80" as="geometry" />
        </mxCell>
        <mxCell id="iIViWj5kwo_5ftV5tEHs-29" value="" style="edgeStyle=none;curved=1;rounded=0;orthogonalLoop=1;jettySize=auto;html=1;fontSize=12;startSize=8;endSize=8;" parent="1" source="iIViWj5kwo_5ftV5tEHs-3" target="iIViWj5kwo_5ftV5tEHs-27" edge="1">
          <mxGeometry relative="1" as="geometry" />
        </mxCell>
        <mxCell id="iIViWj5kwo_5ftV5tEHs-40" value="&lt;font style=&quot;font-size: 20px;&quot;&gt;x&lt;/font&gt;" style="edgeLabel;html=1;align=center;verticalAlign=middle;resizable=0;points=[];fontSize=12;" parent="iIViWj5kwo_5ftV5tEHs-29" vertex="1" connectable="0">
          <mxGeometry x="-0.0833" y="2" relative="1" as="geometry">
            <mxPoint x="3" y="-178" as="offset" />
          </mxGeometry>
        </mxCell>
        <mxCell id="JUdrio8stWn7Q4SskedR-25" value="&lt;font style=&quot;font-size: 20px;&quot;&gt;w&lt;/font&gt;" style="edgeLabel;html=1;align=center;verticalAlign=middle;resizable=0;points=[];" parent="iIViWj5kwo_5ftV5tEHs-29" vertex="1" connectable="0">
          <mxGeometry x="-0.0583" relative="1" as="geometry">
            <mxPoint y="-20" as="offset" />
          </mxGeometry>
        </mxCell>
        <mxCell id="iIViWj5kwo_5ftV5tEHs-3" value="q7" style="ellipse;whiteSpace=wrap;html=1;rounded=0;shadow=1;strokeColor=#666666;strokeWidth=1;fontSize=30;align=center;fillColor=#f5f5f5;" parent="1" vertex="1">
          <mxGeometry x="280" y="700" width="80" height="80" as="geometry" />
        </mxCell>
        <mxCell id="iIViWj5kwo_5ftV5tEHs-23" style="edgeStyle=none;curved=1;rounded=0;orthogonalLoop=1;jettySize=auto;html=1;entryX=0;entryY=0.5;entryDx=0;entryDy=0;fontSize=12;startSize=8;endSize=8;" parent="1" source="iIViWj5kwo_5ftV5tEHs-11" edge="1">
          <mxGeometry relative="1" as="geometry">
            <mxPoint x="600" y="350" as="targetPoint" />
          </mxGeometry>
        </mxCell>
        <mxCell id="iIViWj5kwo_5ftV5tEHs-39" value="&lt;font style=&quot;font-size: 20px;&quot;&gt;w&lt;/font&gt;" style="edgeLabel;html=1;align=center;verticalAlign=middle;resizable=0;points=[];fontSize=12;" parent="iIViWj5kwo_5ftV5tEHs-23" vertex="1" connectable="0">
          <mxGeometry x="-0.0833" y="3" relative="1" as="geometry">
            <mxPoint y="-17" as="offset" />
          </mxGeometry>
        </mxCell>
        <mxCell id="iIViWj5kwo_5ftV5tEHs-11" value="q2" style="ellipse;whiteSpace=wrap;html=1;rounded=0;shadow=1;strokeColor=#666666;strokeWidth=1;fontSize=30;align=center;fillColor=#f5f5f5;" parent="1" vertex="1">
          <mxGeometry x="440" y="310" width="80" height="80" as="geometry" />
        </mxCell>
        <mxCell id="iIViWj5kwo_5ftV5tEHs-27" value="q8" style="ellipse;whiteSpace=wrap;html=1;rounded=0;shadow=1;strokeColor=#666666;strokeWidth=1;fontSize=30;align=center;fillColor=#f5f5f5;" parent="1" vertex="1">
          <mxGeometry x="440" y="700" width="80" height="80" as="geometry" />
        </mxCell>
        <mxCell id="iIViWj5kwo_5ftV5tEHs-47" style="edgeStyle=none;curved=0;rounded=0;orthogonalLoop=1;jettySize=auto;html=1;exitX=1;exitY=0.5;exitDx=0;exitDy=0;fontSize=12;startSize=8;endSize=8;" parent="1" source="iIViWj5kwo_5ftV5tEHs-49" target="iIViWj5kwo_5ftV5tEHs-52" edge="1">
          <mxGeometry relative="1" as="geometry">
            <Array as="points">
              <mxPoint x="1240" y="590" />
              <mxPoint x="1240" y="750" />
            </Array>
          </mxGeometry>
        </mxCell>
        <mxCell id="iIViWj5kwo_5ftV5tEHs-49" value="q5" style="ellipse;whiteSpace=wrap;html=1;rounded=0;shadow=1;strokeColor=#666666;strokeWidth=1;fontSize=30;align=center;fillColor=#f5f5f5;" parent="1" vertex="1">
          <mxGeometry x="1070" y="550" width="80" height="80" as="geometry" />
        </mxCell>
        <mxCell id="iIViWj5kwo_5ftV5tEHs-50" value="" style="edgeStyle=none;curved=1;rounded=0;orthogonalLoop=1;jettySize=auto;html=1;fontSize=12;startSize=8;endSize=8;" parent="1" source="iIViWj5kwo_5ftV5tEHs-52" target="iIViWj5kwo_5ftV5tEHs-59" edge="1">
          <mxGeometry relative="1" as="geometry" />
        </mxCell>
        <mxCell id="iIViWj5kwo_5ftV5tEHs-52" value="q8" style="ellipse;whiteSpace=wrap;html=1;rounded=0;shadow=1;strokeColor=#666666;strokeWidth=1;fontSize=30;align=center;fillColor=#f5f5f5;" parent="1" vertex="1">
          <mxGeometry x="1310" y="710" width="80" height="80" as="geometry" />
        </mxCell>
        <mxCell id="iIViWj5kwo_5ftV5tEHs-53" style="edgeStyle=none;curved=1;rounded=0;orthogonalLoop=1;jettySize=auto;html=1;entryX=0;entryY=0.5;entryDx=0;entryDy=0;fontSize=12;startSize=8;endSize=8;" parent="1" source="iIViWj5kwo_5ftV5tEHs-55" target="YRFl2U0ToXUnBVI3a0Rl-48" edge="1">
          <mxGeometry relative="1" as="geometry">
            <mxPoint x="1593.9999999999686" y="360.53" as="targetPoint" />
          </mxGeometry>
        </mxCell>
        <mxCell id="iIViWj5kwo_5ftV5tEHs-54" value="&lt;span style=&quot;font-size: 20px;&quot;&gt;y&lt;/span&gt;" style="edgeLabel;html=1;align=center;verticalAlign=middle;resizable=0;points=[];fontSize=12;" parent="iIViWj5kwo_5ftV5tEHs-53" vertex="1" connectable="0">
          <mxGeometry x="-0.0833" y="3" relative="1" as="geometry">
            <mxPoint y="-17" as="offset" />
          </mxGeometry>
        </mxCell>
        <mxCell id="iIViWj5kwo_5ftV5tEHs-55" value="q12" style="ellipse;whiteSpace=wrap;html=1;rounded=0;shadow=1;strokeColor=#666666;strokeWidth=1;fontSize=30;align=center;fillColor=#f5f5f5;" parent="1" vertex="1">
          <mxGeometry x="1470" y="320.53" width="80" height="80" as="geometry" />
        </mxCell>
        <mxCell id="iIViWj5kwo_5ftV5tEHs-57" value="" style="edgeStyle=none;curved=1;rounded=0;orthogonalLoop=1;jettySize=auto;html=1;fontSize=12;startSize=8;endSize=8;" parent="1" source="iIViWj5kwo_5ftV5tEHs-59" edge="1">
          <mxGeometry relative="1" as="geometry">
            <mxPoint x="1630" y="750" as="targetPoint" />
          </mxGeometry>
        </mxCell>
        <mxCell id="iIViWj5kwo_5ftV5tEHs-58" value="&lt;font style=&quot;font-size: 20px;&quot;&gt;y&lt;/font&gt;" style="edgeLabel;html=1;align=center;verticalAlign=middle;resizable=0;points=[];fontSize=12;" parent="iIViWj5kwo_5ftV5tEHs-57" vertex="1" connectable="0">
          <mxGeometry x="-0.1667" relative="1" as="geometry">
            <mxPoint y="-181" as="offset" />
          </mxGeometry>
        </mxCell>
        <mxCell id="JUdrio8stWn7Q4SskedR-35" value="&lt;font style=&quot;font-size: 20px;&quot;&gt;x&lt;/font&gt;" style="edgeLabel;html=1;align=center;verticalAlign=middle;resizable=0;points=[];" parent="iIViWj5kwo_5ftV5tEHs-57" vertex="1" connectable="0">
          <mxGeometry x="-0.0542" y="-1" relative="1" as="geometry">
            <mxPoint y="-21" as="offset" />
          </mxGeometry>
        </mxCell>
        <mxCell id="iIViWj5kwo_5ftV5tEHs-59" value="q20" style="ellipse;whiteSpace=wrap;html=1;rounded=0;shadow=1;strokeColor=#666666;strokeWidth=1;fontSize=30;align=center;fillColor=#f5f5f5;" parent="1" vertex="1">
          <mxGeometry x="1470" y="710" width="80" height="80" as="geometry" />
        </mxCell>
        <mxCell id="EqjX6n_9IyycGUnKyrME-22" value="M = ({w, x, y, z}, {q0, q1, q2, q3, q4, q5, q6, q7, q8, q9, q10, q11, q12, q13, q14, q15, q16, q17, q18, q19, q20, q21, q22, q23, q24, q25, q26, q27, q28, q29, q30, q31, q32, q33}, δ, q0, {q33})" style="text;whiteSpace=wrap;fontSize=45;" parent="1" vertex="1">
          <mxGeometry y="-140" width="3810" height="30" as="geometry" />
        </mxCell>
        <mxCell id="YRFl2U0ToXUnBVI3a0Rl-30" value="" style="edgeStyle=none;curved=0;rounded=0;orthogonalLoop=1;jettySize=auto;html=1;fontSize=12;startSize=8;endSize=8;" parent="1" target="YRFl2U0ToXUnBVI3a0Rl-35" edge="1">
          <mxGeometry relative="1" as="geometry">
            <mxPoint x="520" y="740" as="sourcePoint" />
            <Array as="points" />
          </mxGeometry>
        </mxCell>
        <mxCell id="YRFl2U0ToXUnBVI3a0Rl-31" value="&lt;font style=&quot;font-size: 20px;&quot;&gt;w&lt;/font&gt;" style="edgeLabel;html=1;align=center;verticalAlign=middle;resizable=0;points=[];fontSize=12;" parent="YRFl2U0ToXUnBVI3a0Rl-30" vertex="1" connectable="0">
          <mxGeometry x="-0.0833" y="2" relative="1" as="geometry">
            <mxPoint y="-177" as="offset" />
          </mxGeometry>
        </mxCell>
        <mxCell id="JUdrio8stWn7Q4SskedR-23" value="&lt;font style=&quot;font-size: 20px;&quot;&gt;x&lt;/font&gt;" style="edgeLabel;html=1;align=center;verticalAlign=middle;resizable=0;points=[];" parent="YRFl2U0ToXUnBVI3a0Rl-30" vertex="1" connectable="0">
          <mxGeometry x="-0.0464" relative="1" as="geometry">
            <mxPoint y="-20" as="offset" />
          </mxGeometry>
        </mxCell>
        <mxCell id="JUdrio8stWn7Q4SskedR-9" style="edgeStyle=orthogonalEdgeStyle;rounded=0;orthogonalLoop=1;jettySize=auto;html=1;exitX=1;exitY=0.5;exitDx=0;exitDy=0;endArrow=none;endFill=0;" parent="1" source="YRFl2U0ToXUnBVI3a0Rl-33" edge="1">
          <mxGeometry relative="1" as="geometry">
            <mxPoint x="770" y="590" as="targetPoint" />
            <mxPoint x="689.9999999999948" y="350" as="sourcePoint" />
          </mxGeometry>
        </mxCell>
        <mxCell id="JUdrio8stWn7Q4SskedR-28" value="&lt;font style=&quot;font-size: 20px;&quot;&gt;z&lt;/font&gt;" style="edgeLabel;html=1;align=center;verticalAlign=middle;resizable=0;points=[];" parent="JUdrio8stWn7Q4SskedR-9" vertex="1" connectable="0">
          <mxGeometry x="-0.6733" relative="1" as="geometry">
            <mxPoint x="-1" y="-19" as="offset" />
          </mxGeometry>
        </mxCell>
        <mxCell id="JUdrio8stWn7Q4SskedR-47" value="" style="edgeStyle=orthogonalEdgeStyle;rounded=0;orthogonalLoop=1;jettySize=auto;html=1;entryX=1;entryY=0.5;entryDx=0;entryDy=0;exitX=0.5;exitY=0;exitDx=0;exitDy=0;" parent="1" source="YRFl2U0ToXUnBVI3a0Rl-33" target="JUdrio8stWn7Q4SskedR-46" edge="1">
          <mxGeometry relative="1" as="geometry">
            <mxPoint x="690" y="210" as="sourcePoint" />
            <mxPoint x="620" y="160" as="targetPoint" />
          </mxGeometry>
        </mxCell>
        <mxCell id="YRFl2U0ToXUnBVI3a0Rl-33" value="q3" style="ellipse;whiteSpace=wrap;html=1;rounded=0;shadow=1;strokeColor=#666666;strokeWidth=1;fontSize=30;align=center;fillColor=#f5f5f5;" parent="1" vertex="1">
          <mxGeometry x="600" y="310" width="80" height="80" as="geometry" />
        </mxCell>
        <mxCell id="YRFl2U0ToXUnBVI3a0Rl-35" value="q9" style="ellipse;whiteSpace=wrap;html=1;rounded=0;shadow=1;strokeColor=#666666;strokeWidth=1;fontSize=30;align=center;fillColor=#f5f5f5;" parent="1" vertex="1">
          <mxGeometry x="600" y="700" width="80" height="80" as="geometry" />
        </mxCell>
        <mxCell id="YRFl2U0ToXUnBVI3a0Rl-40" value="" style="edgeStyle=none;curved=0;rounded=0;orthogonalLoop=1;jettySize=auto;html=1;fontSize=12;startSize=8;endSize=8;endArrow=none;endFill=0;exitX=1;exitY=0.5;exitDx=0;exitDy=0;" parent="1" source="YRFl2U0ToXUnBVI3a0Rl-35" edge="1">
          <mxGeometry relative="1" as="geometry">
            <mxPoint x="690" y="739.47" as="sourcePoint" />
            <mxPoint x="770" y="590" as="targetPoint" />
            <Array as="points">
              <mxPoint x="770" y="739" />
            </Array>
          </mxGeometry>
        </mxCell>
        <mxCell id="JUdrio8stWn7Q4SskedR-24" value="&lt;font style=&quot;font-size: 20px;&quot;&gt;y&lt;/font&gt;" style="edgeLabel;html=1;align=center;verticalAlign=middle;resizable=0;points=[];" parent="YRFl2U0ToXUnBVI3a0Rl-40" vertex="1" connectable="0">
          <mxGeometry x="-0.653" y="1" relative="1" as="geometry">
            <mxPoint y="-18" as="offset" />
          </mxGeometry>
        </mxCell>
        <mxCell id="YRFl2U0ToXUnBVI3a0Rl-46" style="edgeStyle=none;curved=1;rounded=0;orthogonalLoop=1;jettySize=auto;html=1;entryX=0;entryY=0.5;entryDx=0;entryDy=0;fontSize=12;startSize=8;endSize=8;" parent="1" source="YRFl2U0ToXUnBVI3a0Rl-48" target="YRFl2U0ToXUnBVI3a0Rl-74" edge="1">
          <mxGeometry relative="1" as="geometry">
            <mxPoint x="1753.9999999999686" y="360.53" as="targetPoint" />
          </mxGeometry>
        </mxCell>
        <mxCell id="YRFl2U0ToXUnBVI3a0Rl-47" value="&lt;span style=&quot;font-size: 20px;&quot;&gt;x&lt;/span&gt;" style="edgeLabel;html=1;align=center;verticalAlign=middle;resizable=0;points=[];fontSize=12;" parent="YRFl2U0ToXUnBVI3a0Rl-46" vertex="1" connectable="0">
          <mxGeometry x="-0.0833" y="3" relative="1" as="geometry">
            <mxPoint y="-17" as="offset" />
          </mxGeometry>
        </mxCell>
        <mxCell id="YRFl2U0ToXUnBVI3a0Rl-48" value="q13" style="ellipse;whiteSpace=wrap;html=1;rounded=0;shadow=1;strokeColor=#666666;strokeWidth=1;fontSize=30;align=center;fillColor=#f5f5f5;" parent="1" vertex="1">
          <mxGeometry x="1634" y="320.53" width="80" height="80" as="geometry" />
        </mxCell>
        <mxCell id="YRFl2U0ToXUnBVI3a0Rl-49" value="" style="edgeStyle=none;curved=1;rounded=0;orthogonalLoop=1;jettySize=auto;html=1;fontSize=12;startSize=8;endSize=8;" parent="1" source="YRFl2U0ToXUnBVI3a0Rl-51" edge="1">
          <mxGeometry relative="1" as="geometry">
            <mxPoint x="1789.9999999999686" y="750.0000000000005" as="targetPoint" />
          </mxGeometry>
        </mxCell>
        <mxCell id="YRFl2U0ToXUnBVI3a0Rl-50" value="&lt;font style=&quot;font-size: 20px;&quot;&gt;z&lt;/font&gt;" style="edgeLabel;html=1;align=center;verticalAlign=middle;resizable=0;points=[];fontSize=12;" parent="YRFl2U0ToXUnBVI3a0Rl-49" vertex="1" connectable="0">
          <mxGeometry x="-0.1667" relative="1" as="geometry">
            <mxPoint y="-181" as="offset" />
          </mxGeometry>
        </mxCell>
        <mxCell id="YRFl2U0ToXUnBVI3a0Rl-51" value="q22" style="ellipse;whiteSpace=wrap;html=1;rounded=0;shadow=1;strokeColor=#666666;strokeWidth=1;fontSize=30;align=center;fillColor=#f5f5f5;" parent="1" vertex="1">
          <mxGeometry x="1630" y="710" width="80" height="80" as="geometry" />
        </mxCell>
        <mxCell id="JUdrio8stWn7Q4SskedR-19" style="edgeStyle=orthogonalEdgeStyle;rounded=0;orthogonalLoop=1;jettySize=auto;html=1;exitX=1;exitY=0.5;exitDx=0;exitDy=0;endArrow=none;endFill=0;" parent="1" source="YRFl2U0ToXUnBVI3a0Rl-74" edge="1">
          <mxGeometry relative="1" as="geometry">
            <mxPoint x="1950" y="600" as="targetPoint" />
          </mxGeometry>
        </mxCell>
        <mxCell id="YRFl2U0ToXUnBVI3a0Rl-74" value="q14" style="ellipse;whiteSpace=wrap;html=1;rounded=0;shadow=1;strokeColor=#666666;strokeWidth=1;fontSize=30;align=center;fillColor=#f5f5f5;" parent="1" vertex="1">
          <mxGeometry x="1790" y="320.53" width="80" height="80" as="geometry" />
        </mxCell>
        <mxCell id="YRFl2U0ToXUnBVI3a0Rl-77" value="q23" style="ellipse;whiteSpace=wrap;html=1;rounded=0;shadow=1;strokeColor=#666666;strokeWidth=1;fontSize=30;align=center;fillColor=#f5f5f5;" parent="1" vertex="1">
          <mxGeometry x="1790" y="710" width="80" height="80" as="geometry" />
        </mxCell>
        <mxCell id="YRFl2U0ToXUnBVI3a0Rl-78" value="q30" style="ellipse;whiteSpace=wrap;html=1;rounded=0;shadow=1;strokeColor=#666666;strokeWidth=1;fontSize=30;align=center;fillColor=#C7C7C7;" parent="1" vertex="1">
          <mxGeometry x="1866.47" y="200.53" width="80" height="80" as="geometry" />
        </mxCell>
        <mxCell id="YRFl2U0ToXUnBVI3a0Rl-79" value="q28" style="ellipse;whiteSpace=wrap;html=1;rounded=0;shadow=1;strokeColor=#666666;strokeWidth=1;fontSize=30;align=center;fillColor=#C7C7C7;" parent="1" vertex="1">
          <mxGeometry x="1714" y="200.53" width="80" height="80" as="geometry" />
        </mxCell>
        <mxCell id="YRFl2U0ToXUnBVI3a0Rl-82" value="q25" style="ellipse;whiteSpace=wrap;html=1;rounded=0;shadow=1;strokeColor=#666666;strokeWidth=1;fontSize=30;align=center;fillColor=#C7C7C7;" parent="1" vertex="1">
          <mxGeometry x="1670" y="830" width="80" height="80" as="geometry" />
        </mxCell>
        <mxCell id="YRFl2U0ToXUnBVI3a0Rl-83" value="q27" style="ellipse;whiteSpace=wrap;html=1;rounded=0;shadow=1;strokeColor=#666666;strokeWidth=1;fontSize=30;align=center;fillColor=#C7C7C7;" parent="1" vertex="1">
          <mxGeometry x="1910" y="830" width="80" height="80" as="geometry" />
        </mxCell>
        <mxCell id="YRFl2U0ToXUnBVI3a0Rl-86" style="edgeStyle=none;curved=0;rounded=0;orthogonalLoop=1;jettySize=auto;html=1;exitX=0.5;exitY=0;exitDx=0;exitDy=0;entryX=1;entryY=0.5;entryDx=0;entryDy=0;fontSize=12;startSize=8;endSize=8;" parent="1" target="YRFl2U0ToXUnBVI3a0Rl-79" edge="1">
          <mxGeometry relative="1" as="geometry">
            <mxPoint x="1830" y="320.53" as="sourcePoint" />
            <mxPoint x="1870" y="120.53" as="targetPoint" />
            <Array as="points">
              <mxPoint x="1830" y="240.53" />
            </Array>
          </mxGeometry>
        </mxCell>
        <mxCell id="YRFl2U0ToXUnBVI3a0Rl-87" value="&lt;span style=&quot;font-size: 20px;&quot;&gt;y&lt;/span&gt;" style="edgeLabel;html=1;align=center;verticalAlign=middle;resizable=0;points=[];fontSize=12;" parent="YRFl2U0ToXUnBVI3a0Rl-86" vertex="1" connectable="0">
          <mxGeometry x="0.7722" y="2" relative="1" as="geometry">
            <mxPoint x="3" y="-22" as="offset" />
          </mxGeometry>
        </mxCell>
        <mxCell id="YRFl2U0ToXUnBVI3a0Rl-88" style="edgeStyle=none;curved=0;rounded=0;orthogonalLoop=1;jettySize=auto;html=1;exitX=0.5;exitY=0;exitDx=0;exitDy=0;entryX=0;entryY=0.5;entryDx=0;entryDy=0;fontSize=12;startSize=8;endSize=8;" parent="1" target="YRFl2U0ToXUnBVI3a0Rl-78" edge="1">
          <mxGeometry relative="1" as="geometry">
            <mxPoint x="1830" y="320.53" as="sourcePoint" />
            <mxPoint x="1870" y="240.53" as="targetPoint" />
            <Array as="points">
              <mxPoint x="1830" y="240.53" />
            </Array>
          </mxGeometry>
        </mxCell>
        <mxCell id="YRFl2U0ToXUnBVI3a0Rl-89" value="&lt;font style=&quot;font-size: 20px;&quot;&gt;y&lt;/font&gt;" style="edgeLabel;html=1;align=center;verticalAlign=middle;resizable=0;points=[];fontSize=12;" parent="YRFl2U0ToXUnBVI3a0Rl-88" vertex="1" connectable="0">
          <mxGeometry x="0.5778" y="1" relative="1" as="geometry">
            <mxPoint x="8" y="-19" as="offset" />
          </mxGeometry>
        </mxCell>
        <mxCell id="YRFl2U0ToXUnBVI3a0Rl-92" style="edgeStyle=none;curved=0;rounded=0;orthogonalLoop=1;jettySize=auto;html=1;exitX=0.5;exitY=1;exitDx=0;exitDy=0;entryX=0;entryY=0.5;entryDx=0;entryDy=0;fontSize=12;startSize=8;endSize=8;" parent="1" target="YRFl2U0ToXUnBVI3a0Rl-83" edge="1">
          <mxGeometry relative="1" as="geometry">
            <mxPoint x="1830" y="790" as="sourcePoint" />
            <Array as="points">
              <mxPoint x="1830" y="870" />
            </Array>
            <mxPoint x="1869.9999999999845" y="870" as="targetPoint" />
          </mxGeometry>
        </mxCell>
        <mxCell id="YRFl2U0ToXUnBVI3a0Rl-93" value="&lt;font style=&quot;font-size: 20px;&quot;&gt;x&lt;/font&gt;" style="edgeLabel;html=1;align=center;verticalAlign=middle;resizable=0;points=[];fontSize=12;" parent="YRFl2U0ToXUnBVI3a0Rl-92" vertex="1" connectable="0">
          <mxGeometry x="0.5868" y="4" relative="1" as="geometry">
            <mxPoint x="-7" y="-16" as="offset" />
          </mxGeometry>
        </mxCell>
        <mxCell id="YRFl2U0ToXUnBVI3a0Rl-94" style="edgeStyle=none;curved=0;rounded=0;orthogonalLoop=1;jettySize=auto;html=1;exitX=0.5;exitY=1;exitDx=0;exitDy=0;entryX=1;entryY=0.5;entryDx=0;entryDy=0;fontSize=12;startSize=8;endSize=8;" parent="1" target="YRFl2U0ToXUnBVI3a0Rl-82" edge="1">
          <mxGeometry relative="1" as="geometry">
            <mxPoint x="1830" y="790" as="sourcePoint" />
            <Array as="points">
              <mxPoint x="1830" y="870" />
            </Array>
            <mxPoint x="1869.9999999999845" y="990" as="targetPoint" />
          </mxGeometry>
        </mxCell>
        <mxCell id="YRFl2U0ToXUnBVI3a0Rl-95" value="&lt;font style=&quot;font-size: 20px;&quot;&gt;x&lt;/font&gt;" style="edgeLabel;html=1;align=center;verticalAlign=middle;resizable=0;points=[];fontSize=12;" parent="YRFl2U0ToXUnBVI3a0Rl-94" vertex="1" connectable="0">
          <mxGeometry x="0.7841" y="1" relative="1" as="geometry">
            <mxPoint x="23" y="-19" as="offset" />
          </mxGeometry>
        </mxCell>
        <mxCell id="YRFl2U0ToXUnBVI3a0Rl-101" style="edgeStyle=none;curved=1;rounded=0;orthogonalLoop=1;jettySize=auto;html=1;exitX=1;exitY=0.5;exitDx=0;exitDy=0;fontSize=12;startSize=8;endSize=8;entryX=0;entryY=0.5;entryDx=0;entryDy=0;" parent="1" source="YRFl2U0ToXUnBVI3a0Rl-109" target="iIViWj5kwo_5ftV5tEHs-55" edge="1">
          <mxGeometry relative="1" as="geometry">
            <mxPoint x="1420" y="410" as="targetPoint" />
          </mxGeometry>
        </mxCell>
        <mxCell id="YRFl2U0ToXUnBVI3a0Rl-102" value="&lt;font style=&quot;font-size: 20px;&quot;&gt;z&lt;/font&gt;" style="edgeLabel;html=1;align=center;verticalAlign=middle;resizable=0;points=[];fontSize=12;" parent="YRFl2U0ToXUnBVI3a0Rl-101" vertex="1" connectable="0">
          <mxGeometry x="-0.4769" y="3" relative="1" as="geometry">
            <mxPoint x="19" y="-17" as="offset" />
          </mxGeometry>
        </mxCell>
        <mxCell id="YRFl2U0ToXUnBVI3a0Rl-109" value="q11" style="ellipse;whiteSpace=wrap;html=1;rounded=0;shadow=1;strokeColor=#666666;strokeWidth=1;fontSize=30;align=center;fillColor=#f5f5f5;" parent="1" vertex="1">
          <mxGeometry x="1310" y="320.53" width="80" height="80" as="geometry" />
        </mxCell>
        <mxCell id="YRFl2U0ToXUnBVI3a0Rl-110" style="edgeStyle=none;curved=0;rounded=0;orthogonalLoop=1;jettySize=auto;html=1;entryX=0;entryY=0.5;entryDx=0;entryDy=0;fontSize=12;startSize=8;endSize=8;" parent="1" source="YRFl2U0ToXUnBVI3a0Rl-114" target="YRFl2U0ToXUnBVI3a0Rl-109" edge="1">
          <mxGeometry relative="1" as="geometry">
            <Array as="points">
              <mxPoint x="1240" y="590" />
              <mxPoint x="1240" y="430" />
              <mxPoint x="1240" y="361" />
            </Array>
          </mxGeometry>
        </mxCell>
        <mxCell id="YRFl2U0ToXUnBVI3a0Rl-111" value="&lt;font style=&quot;font-size: 20px;&quot;&gt;w&lt;/font&gt;" style="edgeLabel;html=1;align=center;verticalAlign=middle;resizable=0;points=[];fontSize=12;" parent="YRFl2U0ToXUnBVI3a0Rl-110" vertex="1" connectable="0">
          <mxGeometry x="0.7841" y="2" relative="1" as="geometry">
            <mxPoint x="2" y="-19" as="offset" />
          </mxGeometry>
        </mxCell>
        <mxCell id="i9ecy3kwUGsUXFgubPl8-27" style="edgeStyle=orthogonalEdgeStyle;rounded=0;orthogonalLoop=1;jettySize=auto;html=1;entryX=0.5;entryY=0;entryDx=0;entryDy=0;" parent="1" source="YRFl2U0ToXUnBVI3a0Rl-114" target="YRFl2U0ToXUnBVI3a0Rl-114" edge="1">
          <mxGeometry relative="1" as="geometry">
            <mxPoint x="1120" y="540" as="targetPoint" />
            <Array as="points">
              <mxPoint x="1050" y="590" />
              <mxPoint x="1050" y="520" />
              <mxPoint x="1110" y="520" />
            </Array>
          </mxGeometry>
        </mxCell>
        <mxCell id="JUdrio8stWn7Q4SskedR-11" value="" style="edgeStyle=orthogonalEdgeStyle;rounded=0;orthogonalLoop=1;jettySize=auto;html=1;" parent="1" source="YRFl2U0ToXUnBVI3a0Rl-114" target="JUdrio8stWn7Q4SskedR-10" edge="1">
          <mxGeometry relative="1" as="geometry" />
        </mxCell>
        <mxCell id="YRFl2U0ToXUnBVI3a0Rl-114" value="q10" style="ellipse;whiteSpace=wrap;html=1;rounded=0;shadow=1;strokeColor=#666666;strokeWidth=1;fontSize=30;align=center;fillColor=#f5f5f5;" parent="1" vertex="1">
          <mxGeometry x="1070" y="550" width="80" height="80" as="geometry" />
        </mxCell>
        <mxCell id="YRFl2U0ToXUnBVI3a0Rl-115" value="" style="edgeStyle=none;curved=1;rounded=0;orthogonalLoop=1;jettySize=auto;html=1;fontSize=12;startSize=8;endSize=8;" parent="1" source="YRFl2U0ToXUnBVI3a0Rl-121" edge="1">
          <mxGeometry relative="1" as="geometry">
            <mxPoint x="1470" y="750" as="targetPoint" />
          </mxGeometry>
        </mxCell>
        <mxCell id="YRFl2U0ToXUnBVI3a0Rl-116" value="&lt;font style=&quot;font-size: 20px;&quot;&gt;x&lt;/font&gt;" style="edgeLabel;html=1;align=center;verticalAlign=middle;resizable=0;points=[];fontSize=12;" parent="YRFl2U0ToXUnBVI3a0Rl-115" vertex="1" connectable="0">
          <mxGeometry x="-0.0833" y="2" relative="1" as="geometry">
            <mxPoint y="-178" as="offset" />
          </mxGeometry>
        </mxCell>
        <mxCell id="JUdrio8stWn7Q4SskedR-33" value="&lt;font style=&quot;font-size: 20px;&quot;&gt;w&lt;/font&gt;" style="edgeLabel;html=1;align=center;verticalAlign=middle;resizable=0;points=[];" parent="YRFl2U0ToXUnBVI3a0Rl-115" vertex="1" connectable="0">
          <mxGeometry x="-0.0333" relative="1" as="geometry">
            <mxPoint y="-20" as="offset" />
          </mxGeometry>
        </mxCell>
        <mxCell id="YRFl2U0ToXUnBVI3a0Rl-121" value="q19" style="ellipse;whiteSpace=wrap;html=1;rounded=0;shadow=1;strokeColor=#666666;strokeWidth=1;fontSize=30;align=center;fillColor=#f5f5f5;" parent="1" vertex="1">
          <mxGeometry x="1310" y="710" width="80" height="80" as="geometry" />
        </mxCell>
        <mxCell id="YRFl2U0ToXUnBVI3a0Rl-133" style="edgeStyle=none;curved=1;rounded=0;orthogonalLoop=1;jettySize=auto;html=1;exitX=1;exitY=0.5;exitDx=0;exitDy=0;fontSize=12;startSize=8;endSize=8;entryX=0;entryY=0.5;entryDx=0;entryDy=0;" parent="1" source="YRFl2U0ToXUnBVI3a0Rl-160" edge="1">
          <mxGeometry relative="1" as="geometry">
            <mxPoint x="2640" y="440.53" as="targetPoint" />
          </mxGeometry>
        </mxCell>
        <mxCell id="YRFl2U0ToXUnBVI3a0Rl-134" value="&lt;font style=&quot;font-size: 20px;&quot;&gt;x&lt;/font&gt;" style="edgeLabel;html=1;align=center;verticalAlign=middle;resizable=0;points=[];fontSize=12;" parent="YRFl2U0ToXUnBVI3a0Rl-133" vertex="1" connectable="0">
          <mxGeometry x="-0.4769" y="3" relative="1" as="geometry">
            <mxPoint x="19" y="-17" as="offset" />
          </mxGeometry>
        </mxCell>
        <mxCell id="YRFl2U0ToXUnBVI3a0Rl-141" style="edgeStyle=none;curved=0;rounded=0;orthogonalLoop=1;jettySize=auto;html=1;entryX=0;entryY=0.5;entryDx=0;entryDy=0;fontSize=12;startSize=8;endSize=8;" parent="1" source="YRFl2U0ToXUnBVI3a0Rl-161" target="YRFl2U0ToXUnBVI3a0Rl-160" edge="1">
          <mxGeometry relative="1" as="geometry">
            <Array as="points">
              <mxPoint x="2410" y="600.53" />
              <mxPoint x="2410" y="440.53" />
            </Array>
          </mxGeometry>
        </mxCell>
        <mxCell id="YRFl2U0ToXUnBVI3a0Rl-142" value="&lt;font style=&quot;font-size: 20px;&quot;&gt;w&lt;/font&gt;" style="edgeLabel;html=1;align=center;verticalAlign=middle;resizable=0;points=[];fontSize=12;" parent="YRFl2U0ToXUnBVI3a0Rl-141" vertex="1" connectable="0">
          <mxGeometry x="0.7841" y="2" relative="1" as="geometry">
            <mxPoint y="-18" as="offset" />
          </mxGeometry>
        </mxCell>
        <mxCell id="YRFl2U0ToXUnBVI3a0Rl-143" style="edgeStyle=none;curved=0;rounded=0;orthogonalLoop=1;jettySize=auto;html=1;exitX=1;exitY=0.5;exitDx=0;exitDy=0;fontSize=12;startSize=8;endSize=8;" parent="1" source="YRFl2U0ToXUnBVI3a0Rl-161" target="YRFl2U0ToXUnBVI3a0Rl-162" edge="1">
          <mxGeometry relative="1" as="geometry">
            <Array as="points">
              <mxPoint x="2410" y="600.53" />
              <mxPoint x="2410" y="760.53" />
            </Array>
          </mxGeometry>
        </mxCell>
        <mxCell id="YRFl2U0ToXUnBVI3a0Rl-144" value="&lt;span style=&quot;font-size: 20px;&quot;&gt;y&lt;/span&gt;" style="edgeLabel;html=1;align=center;verticalAlign=middle;resizable=0;points=[];fontSize=12;" parent="YRFl2U0ToXUnBVI3a0Rl-143" vertex="1" connectable="0">
          <mxGeometry x="0.7841" relative="1" as="geometry">
            <mxPoint y="-20" as="offset" />
          </mxGeometry>
        </mxCell>
        <mxCell id="YRFl2U0ToXUnBVI3a0Rl-145" value="" style="edgeStyle=none;curved=1;rounded=0;orthogonalLoop=1;jettySize=auto;html=1;fontSize=12;startSize=8;endSize=8;" parent="1" source="YRFl2U0ToXUnBVI3a0Rl-162" edge="1">
          <mxGeometry relative="1" as="geometry">
            <mxPoint x="2640" y="760.53" as="targetPoint" />
          </mxGeometry>
        </mxCell>
        <mxCell id="YRFl2U0ToXUnBVI3a0Rl-146" value="&lt;font style=&quot;font-size: 20px;&quot;&gt;z&lt;/font&gt;" style="edgeLabel;html=1;align=center;verticalAlign=middle;resizable=0;points=[];fontSize=12;" parent="YRFl2U0ToXUnBVI3a0Rl-145" vertex="1" connectable="0">
          <mxGeometry x="-0.0833" y="2" relative="1" as="geometry">
            <mxPoint y="-18" as="offset" />
          </mxGeometry>
        </mxCell>
        <mxCell id="YRFl2U0ToXUnBVI3a0Rl-160" value="q24" style="ellipse;whiteSpace=wrap;html=1;rounded=0;shadow=1;strokeColor=#666666;strokeWidth=1;fontSize=30;align=center;fillColor=#f5f5f5;" parent="1" vertex="1">
          <mxGeometry x="2480" y="400.53" width="80" height="80" as="geometry" />
        </mxCell>
        <mxCell id="YRFl2U0ToXUnBVI3a0Rl-204" style="edgeStyle=orthogonalEdgeStyle;rounded=0;orthogonalLoop=1;jettySize=auto;html=1;exitX=1;exitY=0.5;exitDx=0;exitDy=0;" parent="1" source="YRFl2U0ToXUnBVI3a0Rl-161" edge="1">
          <mxGeometry relative="1" as="geometry">
            <mxPoint x="2480" y="600.53" as="targetPoint" />
          </mxGeometry>
        </mxCell>
        <mxCell id="YRFl2U0ToXUnBVI3a0Rl-234" value="&lt;font style=&quot;font-size: 20px;&quot;&gt;x&lt;/font&gt;" style="edgeLabel;html=1;align=center;verticalAlign=middle;resizable=0;points=[];" parent="YRFl2U0ToXUnBVI3a0Rl-204" vertex="1" connectable="0">
          <mxGeometry x="0.5088" y="1" relative="1" as="geometry">
            <mxPoint y="-19" as="offset" />
          </mxGeometry>
        </mxCell>
        <mxCell id="YRFl2U0ToXUnBVI3a0Rl-161" value="q23" style="ellipse;whiteSpace=wrap;html=1;rounded=0;shadow=1;strokeColor=#666666;strokeWidth=1;fontSize=30;align=center;fillColor=#f5f5f5;" parent="1" vertex="1">
          <mxGeometry x="2240" y="560.53" width="80" height="80" as="geometry" />
        </mxCell>
        <mxCell id="YRFl2U0ToXUnBVI3a0Rl-217" value="" style="edgeStyle=orthogonalEdgeStyle;rounded=0;orthogonalLoop=1;jettySize=auto;html=1;" parent="1" source="YRFl2U0ToXUnBVI3a0Rl-162" target="YRFl2U0ToXUnBVI3a0Rl-216" edge="1">
          <mxGeometry relative="1" as="geometry" />
        </mxCell>
        <mxCell id="YRFl2U0ToXUnBVI3a0Rl-162" value="q30" style="ellipse;whiteSpace=wrap;html=1;rounded=0;shadow=1;strokeColor=#666666;strokeWidth=1;fontSize=30;align=center;fillColor=#f5f5f5;" parent="1" vertex="1">
          <mxGeometry x="2480" y="720.53" width="80" height="80" as="geometry" />
        </mxCell>
        <mxCell id="YRFl2U0ToXUnBVI3a0Rl-206" value="" style="edgeStyle=orthogonalEdgeStyle;rounded=0;orthogonalLoop=1;jettySize=auto;html=1;" parent="1" source="YRFl2U0ToXUnBVI3a0Rl-203" target="YRFl2U0ToXUnBVI3a0Rl-205" edge="1">
          <mxGeometry relative="1" as="geometry" />
        </mxCell>
        <mxCell id="YRFl2U0ToXUnBVI3a0Rl-235" value="&lt;font style=&quot;font-size: 20px;&quot;&gt;y&lt;/font&gt;" style="edgeLabel;html=1;align=center;verticalAlign=middle;resizable=0;points=[];" parent="YRFl2U0ToXUnBVI3a0Rl-206" vertex="1" connectable="0">
          <mxGeometry x="-0.1178" relative="1" as="geometry">
            <mxPoint x="5" y="-20" as="offset" />
          </mxGeometry>
        </mxCell>
        <mxCell id="YRFl2U0ToXUnBVI3a0Rl-203" value="q27" style="ellipse;whiteSpace=wrap;html=1;rounded=0;shadow=1;strokeColor=#666666;strokeWidth=1;fontSize=30;align=center;fillColor=#f5f5f5;" parent="1" vertex="1">
          <mxGeometry x="2480" y="560.53" width="80" height="80" as="geometry" />
        </mxCell>
        <mxCell id="YRFl2U0ToXUnBVI3a0Rl-208" value="" style="edgeStyle=orthogonalEdgeStyle;rounded=0;orthogonalLoop=1;jettySize=auto;html=1;" parent="1" source="YRFl2U0ToXUnBVI3a0Rl-205" target="YRFl2U0ToXUnBVI3a0Rl-207" edge="1">
          <mxGeometry relative="1" as="geometry" />
        </mxCell>
        <mxCell id="YRFl2U0ToXUnBVI3a0Rl-237" value="&lt;font style=&quot;font-size: 20px;&quot;&gt;z&lt;/font&gt;" style="edgeLabel;html=1;align=center;verticalAlign=middle;resizable=0;points=[];" parent="YRFl2U0ToXUnBVI3a0Rl-208" vertex="1" connectable="0">
          <mxGeometry x="0.0144" y="1" relative="1" as="geometry">
            <mxPoint y="-19" as="offset" />
          </mxGeometry>
        </mxCell>
        <mxCell id="YRFl2U0ToXUnBVI3a0Rl-205" value="q28" style="ellipse;whiteSpace=wrap;html=1;fontSize=30;fillColor=#f5f5f5;strokeColor=#666666;rounded=0;shadow=1;strokeWidth=1;" parent="1" vertex="1">
          <mxGeometry x="2640" y="560.53" width="80" height="80" as="geometry" />
        </mxCell>
        <mxCell id="YRFl2U0ToXUnBVI3a0Rl-210" value="" style="edgeStyle=orthogonalEdgeStyle;rounded=0;orthogonalLoop=1;jettySize=auto;html=1;entryX=0;entryY=0.5;entryDx=0;entryDy=0;" parent="1" source="YRFl2U0ToXUnBVI3a0Rl-207" target="i9ecy3kwUGsUXFgubPl8-21" edge="1">
          <mxGeometry relative="1" as="geometry">
            <mxPoint x="2960" y="600.5299999999997" as="targetPoint" />
          </mxGeometry>
        </mxCell>
        <mxCell id="YRFl2U0ToXUnBVI3a0Rl-238" value="&lt;span style=&quot;font-size: 20px;&quot;&gt;x&lt;/span&gt;" style="edgeLabel;html=1;align=center;verticalAlign=middle;resizable=0;points=[];" parent="YRFl2U0ToXUnBVI3a0Rl-210" vertex="1" connectable="0">
          <mxGeometry x="-0.0144" relative="1" as="geometry">
            <mxPoint x="-38" y="-20" as="offset" />
          </mxGeometry>
        </mxCell>
        <mxCell id="YRFl2U0ToXUnBVI3a0Rl-207" value="q29" style="ellipse;whiteSpace=wrap;html=1;fontSize=30;fillColor=#f5f5f5;strokeColor=#666666;rounded=0;shadow=1;strokeWidth=1;" parent="1" vertex="1">
          <mxGeometry x="2800" y="560.53" width="80" height="80" as="geometry" />
        </mxCell>
        <mxCell id="YRFl2U0ToXUnBVI3a0Rl-213" value="" style="edgeStyle=orthogonalEdgeStyle;rounded=0;orthogonalLoop=1;jettySize=auto;html=1;" parent="1" source="YRFl2U0ToXUnBVI3a0Rl-211" target="YRFl2U0ToXUnBVI3a0Rl-212" edge="1">
          <mxGeometry relative="1" as="geometry" />
        </mxCell>
        <mxCell id="YRFl2U0ToXUnBVI3a0Rl-211" value="q25" style="ellipse;whiteSpace=wrap;html=1;rounded=0;shadow=1;strokeColor=#666666;strokeWidth=1;fontSize=30;align=center;fillColor=#f5f5f5;" parent="1" vertex="1">
          <mxGeometry x="2640" y="400.53" width="80" height="80" as="geometry" />
        </mxCell>
        <mxCell id="YRFl2U0ToXUnBVI3a0Rl-212" value="q26" style="ellipse;whiteSpace=wrap;html=1;fontSize=30;fillColor=#f5f5f5;strokeColor=#666666;rounded=0;shadow=1;strokeWidth=1;" parent="1" vertex="1">
          <mxGeometry x="2800" y="400.53" width="80" height="80" as="geometry" />
        </mxCell>
        <mxCell id="i9ecy3kwUGsUXFgubPl8-25" style="edgeStyle=orthogonalEdgeStyle;rounded=0;orthogonalLoop=1;jettySize=auto;html=1;exitX=1;exitY=0.5;exitDx=0;exitDy=0;endArrow=none;endFill=0;" parent="1" edge="1">
          <mxGeometry relative="1" as="geometry">
            <mxPoint x="2959.9999999999995" y="599.74" as="targetPoint" />
            <mxPoint x="2880" y="440.26999999999975" as="sourcePoint" />
          </mxGeometry>
        </mxCell>
        <mxCell id="YRFl2U0ToXUnBVI3a0Rl-219" value="" style="edgeStyle=orthogonalEdgeStyle;rounded=0;orthogonalLoop=1;jettySize=auto;html=1;" parent="1" source="YRFl2U0ToXUnBVI3a0Rl-216" target="YRFl2U0ToXUnBVI3a0Rl-218" edge="1">
          <mxGeometry relative="1" as="geometry" />
        </mxCell>
        <mxCell id="YRFl2U0ToXUnBVI3a0Rl-232" value="&lt;font style=&quot;font-size: 20px;&quot;&gt;w&lt;/font&gt;" style="edgeLabel;html=1;align=center;verticalAlign=middle;resizable=0;points=[];" parent="YRFl2U0ToXUnBVI3a0Rl-219" vertex="1" connectable="0">
          <mxGeometry x="-0.1036" y="-1" relative="1" as="geometry">
            <mxPoint y="-21" as="offset" />
          </mxGeometry>
        </mxCell>
        <mxCell id="YRFl2U0ToXUnBVI3a0Rl-216" value="q31" style="ellipse;whiteSpace=wrap;html=1;fontSize=30;fillColor=#f5f5f5;strokeColor=#666666;rounded=0;shadow=1;strokeWidth=1;" parent="1" vertex="1">
          <mxGeometry x="2640" y="720.53" width="80" height="80" as="geometry" />
        </mxCell>
        <mxCell id="YRFl2U0ToXUnBVI3a0Rl-218" value="q32" style="ellipse;whiteSpace=wrap;html=1;fontSize=30;fillColor=#f5f5f5;strokeColor=#666666;rounded=0;shadow=1;strokeWidth=1;" parent="1" vertex="1">
          <mxGeometry x="2800" y="720.53" width="80" height="80" as="geometry" />
        </mxCell>
        <mxCell id="YRFl2U0ToXUnBVI3a0Rl-222" value="&lt;font style=&quot;font-size: 20px;&quot;&gt;x&lt;/font&gt;" style="edgeLabel;html=1;align=center;verticalAlign=middle;resizable=0;points=[];fontSize=12;" parent="1" vertex="1" connectable="0">
          <mxGeometry x="2450.0019148936167" y="430.53" as="geometry">
            <mxPoint x="302" y="-10" as="offset" />
          </mxGeometry>
        </mxCell>
        <mxCell id="YRFl2U0ToXUnBVI3a0Rl-224" value="&lt;font style=&quot;font-size: 20px;&quot;&gt;z&lt;/font&gt;" style="edgeLabel;html=1;align=center;verticalAlign=middle;resizable=0;points=[];fontSize=12;" parent="1" vertex="1" connectable="0">
          <mxGeometry x="2620.0019148936167" y="430.53" as="geometry">
            <mxPoint x="302" y="-10" as="offset" />
          </mxGeometry>
        </mxCell>
        <mxCell id="i9ecy3kwUGsUXFgubPl8-9" value="q10" style="ellipse;whiteSpace=wrap;html=1;rounded=0;shadow=1;strokeColor=#666666;strokeWidth=1;fontSize=30;align=center;fillColor=#C7C7C7;" parent="1" vertex="1">
          <mxGeometry x="840" y="540" width="80" height="80" as="geometry" />
        </mxCell>
        <mxCell id="i9ecy3kwUGsUXFgubPl8-12" value="&lt;font style=&quot;font-size: 20px;&quot;&gt;y&lt;/font&gt;" style="edgeLabel;html=1;align=center;verticalAlign=middle;resizable=0;points=[];fontSize=12;" parent="1" vertex="1" connectable="0">
          <mxGeometry x="1910.0005882352946" y="339.99999999999994" as="geometry" />
        </mxCell>
        <mxCell id="i9ecy3kwUGsUXFgubPl8-14" value="" style="edgeStyle=none;curved=0;rounded=0;orthogonalLoop=1;jettySize=auto;html=1;fontSize=12;startSize=8;endSize=8;endArrow=none;endFill=0;" parent="1" edge="1">
          <mxGeometry relative="1" as="geometry">
            <mxPoint x="1870" y="750" as="sourcePoint" />
            <mxPoint x="1950" y="600.53" as="targetPoint" />
            <Array as="points">
              <mxPoint x="1950" y="749.53" />
            </Array>
          </mxGeometry>
        </mxCell>
        <mxCell id="i9ecy3kwUGsUXFgubPl8-15" value="&lt;font style=&quot;font-size: 20px;&quot;&gt;w&lt;/font&gt;" style="edgeLabel;html=1;align=center;verticalAlign=middle;resizable=0;points=[];fontSize=12;" parent="i9ecy3kwUGsUXFgubPl8-14" vertex="1" connectable="0">
          <mxGeometry x="-0.0833" y="2" relative="1" as="geometry">
            <mxPoint x="-42" y="-155" as="offset" />
          </mxGeometry>
        </mxCell>
        <mxCell id="i9ecy3kwUGsUXFgubPl8-16" value="q20" style="ellipse;whiteSpace=wrap;html=1;rounded=0;shadow=1;strokeColor=#666666;strokeWidth=1;fontSize=30;align=center;fillColor=#C7C7C7;" parent="1" vertex="1">
          <mxGeometry x="2030" y="550" width="80" height="80" as="geometry" />
        </mxCell>
        <mxCell id="i9ecy3kwUGsUXFgubPl8-19" value="" style="edgeStyle=none;curved=0;rounded=0;orthogonalLoop=1;jettySize=auto;html=1;fontSize=12;startSize=8;endSize=8;endArrow=none;endFill=0;" parent="1" edge="1">
          <mxGeometry relative="1" as="geometry">
            <mxPoint x="2880" y="760.53" as="sourcePoint" />
            <mxPoint x="2960" y="600.79" as="targetPoint" />
            <Array as="points">
              <mxPoint x="2960" y="760.06" />
            </Array>
          </mxGeometry>
        </mxCell>
        <mxCell id="i9ecy3kwUGsUXFgubPl8-20" value="&lt;font style=&quot;font-size: 20px;&quot;&gt;x&lt;/font&gt;" style="edgeLabel;html=1;align=center;verticalAlign=middle;resizable=0;points=[];fontSize=12;" parent="i9ecy3kwUGsUXFgubPl8-19" vertex="1" connectable="0">
          <mxGeometry x="-0.0833" y="2" relative="1" as="geometry">
            <mxPoint x="-42" y="6" as="offset" />
          </mxGeometry>
        </mxCell>
        <mxCell id="i9ecy3kwUGsUXFgubPl8-21" value="q33" style="ellipse;whiteSpace=wrap;html=1;rounded=0;shadow=1;strokeColor=#666666;strokeWidth=5;fontSize=30;align=center;fillColor=#C7C7C7;" parent="1" vertex="1">
          <mxGeometry x="3036.47" y="560" width="80" height="80" as="geometry" />
        </mxCell>
        <mxCell id="i9ecy3kwUGsUXFgubPl8-30" value="&lt;font style=&quot;font-size: 20px;&quot;&gt;w, x, y, z&lt;/font&gt;" style="edgeLabel;html=1;align=center;verticalAlign=middle;resizable=0;points=[];fontSize=12;" parent="1" vertex="1" connectable="0">
          <mxGeometry x="789.9988235294118" y="340" as="geometry">
            <mxPoint x="291" y="155" as="offset" />
          </mxGeometry>
        </mxCell>
        <mxCell id="i9ecy3kwUGsUXFgubPl8-31" value="&lt;font style=&quot;font-size: 20px;&quot;&gt;w, x, y, z&lt;/font&gt;" style="edgeLabel;html=1;align=center;verticalAlign=middle;resizable=0;points=[];fontSize=12;" parent="1" vertex="1" connectable="0">
          <mxGeometry x="1959.9988235294118" y="350" as="geometry">
            <mxPoint x="291" y="155" as="offset" />
          </mxGeometry>
        </mxCell>
        <mxCell id="i9ecy3kwUGsUXFgubPl8-32" style="edgeStyle=orthogonalEdgeStyle;rounded=0;orthogonalLoop=1;jettySize=auto;html=1;entryX=0.5;entryY=0;entryDx=0;entryDy=0;" parent="1" edge="1">
          <mxGeometry relative="1" as="geometry">
            <mxPoint x="2280" y="560" as="targetPoint" />
            <mxPoint x="2240" y="600" as="sourcePoint" />
            <Array as="points">
              <mxPoint x="2220" y="600" />
              <mxPoint x="2220" y="530" />
              <mxPoint x="2280" y="530" />
            </Array>
          </mxGeometry>
        </mxCell>
        <mxCell id="V3f2G6ie16CQBZfu19GX-5" style="edgeStyle=none;curved=0;rounded=0;orthogonalLoop=1;jettySize=auto;html=1;exitX=0.5;exitY=0;exitDx=0;exitDy=0;entryX=0;entryY=0.5;entryDx=0;entryDy=0;fontSize=12;startSize=8;endSize=8;" parent="1" target="V3f2G6ie16CQBZfu19GX-7" edge="1">
          <mxGeometry relative="1" as="geometry">
            <Array as="points">
              <mxPoint x="640" y="230" />
            </Array>
            <mxPoint x="640" y="310" as="sourcePoint" />
          </mxGeometry>
        </mxCell>
        <mxCell id="V3f2G6ie16CQBZfu19GX-6" value="&lt;font style=&quot;font-size: 20px;&quot;&gt;z&lt;/font&gt;" style="edgeLabel;html=1;align=center;verticalAlign=middle;resizable=0;points=[];fontSize=12;" parent="V3f2G6ie16CQBZfu19GX-5" vertex="1" connectable="0">
          <mxGeometry x="0.5778" y="1" relative="1" as="geometry">
            <mxPoint x="-3" y="-19" as="offset" />
          </mxGeometry>
        </mxCell>
        <mxCell id="V3f2G6ie16CQBZfu19GX-7" value="q19" style="ellipse;whiteSpace=wrap;html=1;rounded=0;shadow=1;strokeColor=#666666;strokeWidth=1;fontSize=30;align=center;fillColor=#C7C7C7;" parent="1" vertex="1">
          <mxGeometry x="690" y="190" width="80" height="80" as="geometry" />
        </mxCell>
        <mxCell id="JUdrio8stWn7Q4SskedR-5" value="" style="edgeStyle=orthogonalEdgeStyle;rounded=0;orthogonalLoop=1;jettySize=auto;html=1;" parent="1" source="JUdrio8stWn7Q4SskedR-2" target="JUdrio8stWn7Q4SskedR-4" edge="1">
          <mxGeometry relative="1" as="geometry" />
        </mxCell>
        <mxCell id="JUdrio8stWn7Q4SskedR-2" value="q4" style="ellipse;whiteSpace=wrap;html=1;fontSize=30;fillColor=#f5f5f5;strokeColor=#666666;rounded=0;shadow=1;strokeWidth=1;" parent="1" vertex="1">
          <mxGeometry x="280" y="540" width="80" height="80" as="geometry" />
        </mxCell>
        <mxCell id="JUdrio8stWn7Q4SskedR-7" value="" style="edgeStyle=orthogonalEdgeStyle;rounded=0;orthogonalLoop=1;jettySize=auto;html=1;" parent="1" source="JUdrio8stWn7Q4SskedR-4" target="JUdrio8stWn7Q4SskedR-6" edge="1">
          <mxGeometry relative="1" as="geometry" />
        </mxCell>
        <mxCell id="JUdrio8stWn7Q4SskedR-4" value="q5" style="ellipse;whiteSpace=wrap;html=1;fontSize=30;fillColor=#f5f5f5;strokeColor=#666666;rounded=0;shadow=1;strokeWidth=1;" parent="1" vertex="1">
          <mxGeometry x="440" y="540" width="80" height="80" as="geometry" />
        </mxCell>
        <mxCell id="JUdrio8stWn7Q4SskedR-6" value="q6" style="ellipse;whiteSpace=wrap;html=1;fontSize=30;fillColor=#f5f5f5;strokeColor=#666666;rounded=0;shadow=1;strokeWidth=1;" parent="1" vertex="1">
          <mxGeometry x="600" y="540" width="80" height="80" as="geometry" />
        </mxCell>
        <mxCell id="JUdrio8stWn7Q4SskedR-8" style="edgeStyle=orthogonalEdgeStyle;rounded=0;orthogonalLoop=1;jettySize=auto;html=1;entryX=0;entryY=0.5;entryDx=0;entryDy=0;" parent="1" source="JUdrio8stWn7Q4SskedR-6" target="i9ecy3kwUGsUXFgubPl8-9" edge="1">
          <mxGeometry relative="1" as="geometry" />
        </mxCell>
        <mxCell id="JUdrio8stWn7Q4SskedR-27" value="&lt;font style=&quot;font-size: 20px;&quot;&gt;z&lt;/font&gt;" style="edgeLabel;html=1;align=center;verticalAlign=middle;resizable=0;points=[];" parent="JUdrio8stWn7Q4SskedR-8" vertex="1" connectable="0">
          <mxGeometry x="-0.4781" relative="1" as="geometry">
            <mxPoint x="-2" y="-19" as="offset" />
          </mxGeometry>
        </mxCell>
        <mxCell id="JUdrio8stWn7Q4SskedR-13" value="" style="edgeStyle=orthogonalEdgeStyle;rounded=0;orthogonalLoop=1;jettySize=auto;html=1;" parent="1" source="JUdrio8stWn7Q4SskedR-10" target="JUdrio8stWn7Q4SskedR-12" edge="1">
          <mxGeometry relative="1" as="geometry" />
        </mxCell>
        <mxCell id="JUdrio8stWn7Q4SskedR-10" value="q15" style="ellipse;whiteSpace=wrap;html=1;fontSize=30;fillColor=#f5f5f5;strokeColor=#666666;rounded=0;shadow=1;strokeWidth=1;" parent="1" vertex="1">
          <mxGeometry x="1310" y="550" width="80" height="80" as="geometry" />
        </mxCell>
        <mxCell id="JUdrio8stWn7Q4SskedR-15" value="" style="edgeStyle=orthogonalEdgeStyle;rounded=0;orthogonalLoop=1;jettySize=auto;html=1;" parent="1" source="JUdrio8stWn7Q4SskedR-12" target="JUdrio8stWn7Q4SskedR-14" edge="1">
          <mxGeometry relative="1" as="geometry" />
        </mxCell>
        <mxCell id="JUdrio8stWn7Q4SskedR-12" value="q16" style="ellipse;whiteSpace=wrap;html=1;fontSize=30;fillColor=#f5f5f5;strokeColor=#666666;rounded=0;shadow=1;strokeWidth=1;" parent="1" vertex="1">
          <mxGeometry x="1470" y="550" width="80" height="80" as="geometry" />
        </mxCell>
        <mxCell id="JUdrio8stWn7Q4SskedR-17" value="" style="edgeStyle=orthogonalEdgeStyle;rounded=0;orthogonalLoop=1;jettySize=auto;html=1;" parent="1" source="JUdrio8stWn7Q4SskedR-14" target="JUdrio8stWn7Q4SskedR-16" edge="1">
          <mxGeometry relative="1" as="geometry" />
        </mxCell>
        <mxCell id="JUdrio8stWn7Q4SskedR-14" value="q17" style="ellipse;whiteSpace=wrap;html=1;fontSize=30;fillColor=#f5f5f5;strokeColor=#666666;rounded=0;shadow=1;strokeWidth=1;" parent="1" vertex="1">
          <mxGeometry x="1630" y="550" width="80" height="80" as="geometry" />
        </mxCell>
        <mxCell id="JUdrio8stWn7Q4SskedR-16" value="q18" style="ellipse;whiteSpace=wrap;html=1;fontSize=30;fillColor=#f5f5f5;strokeColor=#666666;rounded=0;shadow=1;strokeWidth=1;" parent="1" vertex="1">
          <mxGeometry x="1790" y="550" width="80" height="80" as="geometry" />
        </mxCell>
        <mxCell id="JUdrio8stWn7Q4SskedR-18" style="edgeStyle=orthogonalEdgeStyle;rounded=0;orthogonalLoop=1;jettySize=auto;html=1;entryX=0;entryY=0.5;entryDx=0;entryDy=0;" parent="1" source="JUdrio8stWn7Q4SskedR-16" target="i9ecy3kwUGsUXFgubPl8-16" edge="1">
          <mxGeometry relative="1" as="geometry" />
        </mxCell>
        <mxCell id="JUdrio8stWn7Q4SskedR-30" value="&lt;font style=&quot;font-size: 20px;&quot;&gt;z&lt;/font&gt;" style="edgeLabel;html=1;align=center;verticalAlign=middle;resizable=0;points=[];fontSize=12;" parent="1" vertex="1" connectable="0">
          <mxGeometry x="1270.0033333333336" y="729.9999999999998" as="geometry" />
        </mxCell>
        <mxCell id="JUdrio8stWn7Q4SskedR-38" value="&lt;font style=&quot;font-size: 20px;&quot;&gt;w&lt;/font&gt;" style="edgeLabel;html=1;align=center;verticalAlign=middle;resizable=0;points=[];" parent="1" vertex="1" connectable="0">
          <mxGeometry x="1750.0006896551727" y="730" as="geometry" />
        </mxCell>
        <mxCell id="JUdrio8stWn7Q4SskedR-39" value="&lt;font style=&quot;font-size: 20px;&quot;&gt;x&lt;/font&gt;" style="edgeLabel;html=1;align=center;verticalAlign=middle;resizable=0;points=[];" parent="1" vertex="1" connectable="0">
          <mxGeometry x="1906.4710344827586" y="730" as="geometry" />
        </mxCell>
        <mxCell id="JUdrio8stWn7Q4SskedR-46" value="q12" style="ellipse;whiteSpace=wrap;html=1;fontSize=30;fillColor=#C7C7C7;strokeColor=#666666;rounded=0;shadow=1;strokeWidth=1;" parent="1" vertex="1">
          <mxGeometry x="520" y="190" width="80" height="80" as="geometry" />
        </mxCell>
        <mxCell id="JUdrio8stWn7Q4SskedR-49" value="&lt;font style=&quot;font-size: 20px;&quot;&gt;z&lt;/font&gt;" style="edgeLabel;html=1;align=center;verticalAlign=middle;resizable=0;points=[];fontSize=12;" parent="1" vertex="1" connectable="0">
          <mxGeometry x="619.9966666666668" y="210" as="geometry" />
        </mxCell>
        <mxCell id="JUdrio8stWn7Q4SskedR-58" value="" style="edgeStyle=orthogonalEdgeStyle;rounded=0;orthogonalLoop=1;jettySize=auto;html=1;entryX=1;entryY=0.5;entryDx=0;entryDy=0;exitX=0.5;exitY=0;exitDx=0;exitDy=0;" parent="1" target="JUdrio8stWn7Q4SskedR-64" edge="1">
          <mxGeometry relative="1" as="geometry">
            <mxPoint x="640" y="539.46" as="sourcePoint" />
            <mxPoint x="620" y="389.46000000000004" as="targetPoint" />
            <Array as="points">
              <mxPoint x="640" y="460" />
            </Array>
          </mxGeometry>
        </mxCell>
        <mxCell id="JUdrio8stWn7Q4SskedR-61" style="edgeStyle=none;curved=0;rounded=0;orthogonalLoop=1;jettySize=auto;html=1;entryX=0;entryY=0.5;entryDx=0;entryDy=0;fontSize=12;startSize=8;endSize=8;" parent="1" target="JUdrio8stWn7Q4SskedR-63" edge="1">
          <mxGeometry relative="1" as="geometry">
            <Array as="points">
              <mxPoint x="640" y="459.46000000000004" />
            </Array>
            <mxPoint x="640" y="460" as="sourcePoint" />
          </mxGeometry>
        </mxCell>
        <mxCell id="JUdrio8stWn7Q4SskedR-62" value="&lt;font style=&quot;font-size: 20px;&quot;&gt;z&lt;/font&gt;" style="edgeLabel;html=1;align=center;verticalAlign=middle;resizable=0;points=[];fontSize=12;" parent="JUdrio8stWn7Q4SskedR-61" vertex="1" connectable="0">
          <mxGeometry x="0.5778" y="1" relative="1" as="geometry">
            <mxPoint x="-12" y="-18" as="offset" />
          </mxGeometry>
        </mxCell>
        <mxCell id="JUdrio8stWn7Q4SskedR-63" value="q19" style="ellipse;whiteSpace=wrap;html=1;rounded=0;shadow=1;strokeColor=#666666;strokeWidth=1;fontSize=30;align=center;fillColor=#C7C7C7;" parent="1" vertex="1">
          <mxGeometry x="680" y="419.46000000000004" width="80" height="80" as="geometry" />
        </mxCell>
        <mxCell id="JUdrio8stWn7Q4SskedR-64" value="q12" style="ellipse;whiteSpace=wrap;html=1;fontSize=30;fillColor=#C7C7C7;strokeColor=#666666;rounded=0;shadow=1;strokeWidth=1;" parent="1" vertex="1">
          <mxGeometry x="520" y="419.46000000000004" width="80" height="80" as="geometry" />
        </mxCell>
        <mxCell id="JUdrio8stWn7Q4SskedR-65" value="&lt;font style=&quot;font-size: 20px;&quot;&gt;z&lt;/font&gt;" style="edgeLabel;html=1;align=center;verticalAlign=middle;resizable=0;points=[];fontSize=12;" parent="1" vertex="1" connectable="0">
          <mxGeometry x="619.9966666666668" y="440.53000000000003" as="geometry" />
        </mxCell>
        <mxCell id="JUdrio8stWn7Q4SskedR-66" value="q32" style="ellipse;whiteSpace=wrap;html=1;rounded=0;shadow=1;strokeColor=#666666;strokeWidth=1;fontSize=30;align=center;fillColor=#C7C7C7;" parent="1" vertex="1">
          <mxGeometry x="1866.47" y="430.53" width="80" height="80" as="geometry" />
        </mxCell>
        <mxCell id="JUdrio8stWn7Q4SskedR-67" value="q24" style="ellipse;whiteSpace=wrap;html=1;rounded=0;shadow=1;strokeColor=#666666;strokeWidth=1;fontSize=30;align=center;fillColor=#C7C7C7;" parent="1" vertex="1">
          <mxGeometry x="1710" y="430.53" width="80" height="80" as="geometry" />
        </mxCell>
        <mxCell id="JUdrio8stWn7Q4SskedR-68" style="edgeStyle=none;curved=0;rounded=0;orthogonalLoop=1;jettySize=auto;html=1;exitX=0.5;exitY=0;exitDx=0;exitDy=0;entryX=1;entryY=0.5;entryDx=0;entryDy=0;fontSize=12;startSize=8;endSize=8;" parent="1" target="JUdrio8stWn7Q4SskedR-67" edge="1">
          <mxGeometry relative="1" as="geometry">
            <mxPoint x="1830" y="550.53" as="sourcePoint" />
            <mxPoint x="1870" y="350.53" as="targetPoint" />
            <Array as="points">
              <mxPoint x="1830" y="470.53" />
            </Array>
          </mxGeometry>
        </mxCell>
        <mxCell id="JUdrio8stWn7Q4SskedR-69" value="&lt;span style=&quot;font-size: 20px;&quot;&gt;w&lt;/span&gt;" style="edgeLabel;html=1;align=center;verticalAlign=middle;resizable=0;points=[];fontSize=12;" parent="JUdrio8stWn7Q4SskedR-68" vertex="1" connectable="0">
          <mxGeometry x="0.7722" y="2" relative="1" as="geometry">
            <mxPoint x="6" y="-22" as="offset" />
          </mxGeometry>
        </mxCell>
        <mxCell id="JUdrio8stWn7Q4SskedR-70" style="edgeStyle=none;curved=0;rounded=0;orthogonalLoop=1;jettySize=auto;html=1;exitX=0.5;exitY=0;exitDx=0;exitDy=0;entryX=0;entryY=0.5;entryDx=0;entryDy=0;fontSize=12;startSize=8;endSize=8;" parent="1" target="JUdrio8stWn7Q4SskedR-66" edge="1">
          <mxGeometry relative="1" as="geometry">
            <mxPoint x="1830" y="550.53" as="sourcePoint" />
            <mxPoint x="1870" y="470.53" as="targetPoint" />
            <Array as="points">
              <mxPoint x="1830" y="470.53" />
            </Array>
          </mxGeometry>
        </mxCell>
        <mxCell id="JUdrio8stWn7Q4SskedR-71" value="&lt;font style=&quot;font-size: 20px;&quot;&gt;w&lt;/font&gt;" style="edgeLabel;html=1;align=center;verticalAlign=middle;resizable=0;points=[];fontSize=12;" parent="JUdrio8stWn7Q4SskedR-70" vertex="1" connectable="0">
          <mxGeometry x="0.5778" y="1" relative="1" as="geometry">
            <mxPoint x="-2" y="-19" as="offset" />
          </mxGeometry>
        </mxCell>
        <mxCell id="JnRCVo2LPRj0WvbrtIT3-2" value="&lt;font style=&quot;font-size: 20px;&quot;&gt;x&lt;/font&gt;" style="edgeLabel;html=1;align=center;verticalAlign=middle;resizable=0;points=[];fontSize=12;" vertex="1" connectable="0" parent="1">
          <mxGeometry x="1270" y="570" as="geometry" />
        </mxCell>
      </root>
    </mxGraphModel>
  </diagram>
</mxfile>
